<svg width="32" height="33" viewBox="0 0 32 33" fill="none" xmlns="http://www.w3.org/2000/svg">
<path d="M19.835 7.08105H12.165C9.25725 7.08105 6.90002 9.43827 6.90002 12.3461V20.8011C6.90002 23.7088 9.25725 26.0661 12.165 26.0661H19.835C22.7428 26.0661 25.1 23.7088 25.1 20.8011V12.3461C25.1 9.43827 22.7428 7.08105 19.835 7.08105Z" stroke="#C5C6C7" stroke-width="1.5" stroke-linecap="round"/>
<path d="M16 21.2112C18.5626 21.2112 20.64 19.1338 20.64 16.5712C20.64 14.0086 18.5626 11.9312 16 11.9312C13.4374 11.9312 11.36 14.0086 11.36 16.5712C11.36 19.1338 13.4374 21.2112 16 21.2112Z" stroke="#C5C6C7" stroke-width="1.5" stroke-linecap="round"/>
<path d="M21.555 11.1012C21.9195 11.1012 22.215 10.8058 22.215 10.4412C22.215 10.0767 21.9195 9.78125 21.555 9.78125C21.1905 9.78125 20.895 10.0767 20.895 10.4412C20.895 10.8058 21.1905 11.1012 21.555 11.1012Z" stroke="#C5C6C7" stroke-width="1.5"/>
</svg>
