<svg id="Calque_1" data-name="Calque 1" xmlns="http://www.w3.org/2000/svg" viewBox="0 0 283.96 284.21"><defs><style>.cls-1{fill:#00b9ff;}</style></defs><path class="cls-1" d="M394.28,297.22l-9.35,5.56,2,7.83q0,6.57-12.89,6.57L370,328l-17.18,11.37A89.41,89.41,0,0,1,343,352q-7.59,0-15.54,6.19t-10.61,8.08a43.15,43.15,0,0,1-5.94,3.54,40.29,40.29,0,0,1-6.69,2.65,53.8,53.8,0,0,0-9.6,4.42q-6.19,3.42-7.58,3.67a23.15,23.15,0,0,1-3.92.25h-3.28q-9.6,0-24.76,11.87l-7.83-1.51-6.32,2c-4.38,1.52-7.41,2.27-9.09,2.27a29,29,0,0,1-7.45-1.13,27.51,27.51,0,0,0-5.43-1.14h-1Q214.4,396,211.63,396q-2.53,0-5.56-3.29l-8.84-1a12.23,12.23,0,0,0-5.31,1.52l-7.07-2.53-4.8,2-10.36-4.54-4.55-3.54q-2-1.51-11.87-4.8l-2.78-6.57c-8.25-2.18-12.72-3.41-13.39-3.66s-1.39-2.31-2.15-6.19-2.1-6.48-4-7.83a16.89,16.89,0,0,1-4.67-4.8,35.91,35.91,0,0,1-3.41-7.58,45.08,45.08,0,0,0-3.92-8.59,43.7,43.7,0,0,1-4.92-10,29.76,29.76,0,0,1-1.65-9.47v-1.52l1-15.92a22.58,22.58,0,0,1-3-10.86l3-8.84v-8.84l3-1.52,1-8.33,6.31-23.75,4.55-11.37,2.27-.51,1-7.83q2.53-.75,3.54-9a23.87,23.87,0,0,1,6.19-13.76q5.17-5.56,5.18-8.85a11.36,11.36,0,0,0-2-6.82l6.06-2a45.56,45.56,0,0,1,9.85-10.86l2.78-10.86,6.57-4,2-8.33q10.86-2.28,14.91-9t10.1-8l3.29-3.28q1.26-1.53,10.61-4.55l1.51,1,5.81-5.81,3.54,4.29,5.05,1a45.81,45.81,0,0,1,16.68-3l10.36,1.77c.5.17,1.76.76,3.79,1.77l16.16,6.06,36.38,23a21.18,21.18,0,0,0,7.33,10.86l3,9.86q4.8,11.63,4.8,15.91l-.5,11.37a46.35,46.35,0,0,0-1.27,10.86c0,.34.26.68.76,1q0,1.51-3.41,5.43c-2.27,2.61-3.92,4.59-4.93,5.93l-9.34,2-3.29-2.52a8.43,8.43,0,0,1-2.52-2.53L299,212.08a10.43,10.43,0,0,1-1.64-4.29c-.42-2-.89-4-1.39-5.81v-7.83l-1.52-8.85V172.93l2-9.35q-9.6-16.92-24.5-20.47c-2-.5-3-1.09-3-1.76v-.51c-.17-.67-.93-1.35-2.28-2a5.89,5.89,0,0,1-2.78-2.53H253.06l-7.33-5.81q-7.57,0-7.58,3l-4.8-3-5,3.54-6.82-1-5,3.79a28.31,28.31,0,0,0-6.32-.51,22.27,22.27,0,0,0-7.83,1.52l-8.34,11.87-13.89,13.9-10.86,16.67-4.55,2-4.3,13.39-7.07,5.81v7.08l-8.84,15.15-4.3,16.93H136.6l2,9.85-5.05,9.85,1.51,3.54h-3v7.83l-2,1.52.5,20.21-2.27,15.16q6.06,8.85,5.81,13.39l4.55,3.53v6.32l3.79,5.56-2.28,5.81L150,353.56l.5,5.05,16.17,6.31-1.52,6.57,21.23,1.77,6.56,6.57,10.87-3.54,5.81,6.82,11.87-4.29c2.86-2.36,5.14-3.54,6.82-3.54a1.35,1.35,0,0,1,1.52,1.52l7.58-.51,4.29,3.54,8.34-3h2.52q7.83,0,11-3.92T274.28,369a42.78,42.78,0,0,1,7.33,1q1.26-5.57,10.86-6.07,3.79-4.55,12.88-7.32,3.79,0,14.91-5l3.79-6.32q2.77-.77,14.4-6.32l5.56-7.07,8.84-3.79,27.54-28.8,9.35-5.3Z" transform="translate(-110.32 -111.79)"/><path class="cls-1" d="M370.83,277.19l-6.68,4,1.44,5.61q0,4.69-9.22,4.7l-2.89,7.77-12.29,8.13a63.39,63.39,0,0,1-7.05,9q-5.42,0-11.12,4.43t-7.59,5.78a31.2,31.2,0,0,1-4.25,2.54,29.06,29.06,0,0,1-4.79,1.89,39.24,39.24,0,0,0-6.87,3.17,30.32,30.32,0,0,1-5.42,2.62,16.68,16.68,0,0,1-2.8.18H289q-6.87,0-17.72,8.49l-5.6-1.08-4.52,1.45a24.35,24.35,0,0,1-6.51,1.62,20.63,20.63,0,0,1-5.33-.81,19.71,19.71,0,0,0-3.89-.81h-.72a7.7,7.7,0,0,1-4.52,2c-1.2,0-2.53-.78-4-2.35l-6.33-.72a8.67,8.67,0,0,0-3.8,1.09L221,344.07l-3.43,1.44-7.41-3.25-3.26-2.53c-1-.72-3.79-1.87-8.49-3.43l-2-4.7q-8.86-2.36-9.58-2.63c-.49-.18-1-1.65-1.54-4.42s-1.51-4.64-2.89-5.61a12.13,12.13,0,0,1-3.35-3.43,26.42,26.42,0,0,1-2.44-5.43,31.87,31.87,0,0,0-2.8-6.14,31.05,31.05,0,0,1-3.52-7.14A21.24,21.24,0,0,1,169.1,290v-1.08l.73-11.39a16.13,16.13,0,0,1-2.17-7.78l2.17-6.32v-6.33L172,256l.73-6,4.52-17,3.25-8.13,1.63-.37.72-5.6c1.2-.36,2-2.5,2.53-6.42a17.1,17.1,0,0,1,4.43-9.85q3.7-4,3.71-6.33a8.13,8.13,0,0,0-1.45-4.88l4.34-1.44a32.23,32.23,0,0,1,7-7.77l2-7.78,4.7-2.89,1.44-6q7.77-1.64,10.67-6.42c1.92-3.19,4.34-5.09,7.23-5.7l2.35-2.35q.9-1.08,7.59-3.25l1.08.72,4.16-4.15,2.53,3.07,3.62.72a32.85,32.85,0,0,1,11.93-2.17l7.41,1.27c.36.12,1.27.54,2.71,1.26L284.43,153l26,16.45a15.08,15.08,0,0,0,5.24,7.77l2.17,7.05q3.44,8.32,3.44,11.39l-.37,8.14a33.56,33.56,0,0,0-.9,7.77q0,.36.54.72c0,.73-.81,2-2.44,3.89s-2.8,3.28-3.52,4.25l-6.69,1.44-2.35-1.81a6.12,6.12,0,0,1-1.81-1.8l-1.08-2a7.43,7.43,0,0,1-1.18-3.07c-.3-1.45-.63-2.83-1-4.16v-5.61l-1.09-6.32v-8.86l1.45-6.69q-6.87-12.1-17.53-14.64c-1.45-.36-2.17-.78-2.17-1.26v-.37c-.13-.48-.67-1-1.63-1.44a4.19,4.19,0,0,1-2-1.81h-7.77l-5.24-4.16c-3.62,0-5.43.73-5.43,2.17l-3.43-2.17-3.62,2.53-4.88-.72-3.61,2.71a20.51,20.51,0,0,0-4.52-.36,16,16,0,0,0-5.61,1.08l-6,8.5-9.94,9.94-7.78,11.93-3.25,1.45-3.07,9.58-5.06,4.16v5.06l-6.33,10.84L189,236.69h-2.53l1.44,7.05-3.61,7,1.08,2.54H183.2v5.6L181.76,260l.36,14.46-1.63,10.85q4.33,6.33,4.16,9.58l3.25,2.53V302l2.71,4L189,310.08l7,7.42.36,3.61L208,325.63l-1.09,4.7,15.19,1.27,4.7,4.7,7.77-2.54,4.16,4.89,8.49-3.08c2.05-1.68,3.68-2.53,4.88-2.53a1,1,0,0,1,1.09,1.09l5.42-.37,3.07,2.54,6-2.17h1.81q5.6,0,7.86-2.81c1.51-1.86,4.07-2.8,7.68-2.8a30.67,30.67,0,0,1,5.24.73q.92-4,7.78-4.34,2.7-3.26,9.22-5.24,2.7,0,10.66-3.62l2.71-4.52A94.29,94.29,0,0,0,330.89,307l4-5.06,6.33-2.71,19.7-20.61,6.69-3.79Z" transform="translate(-110.32 -111.79)"/></svg>