<svg width="24" height="25" viewBox="0 0 24 25" fill="none" xmlns="http://www.w3.org/2000/svg">
<g clip-path="url(#clip0_195_106)">
<path d="M23.5125 0.767504C23.1565 0.525816 22.6964 0.505285 22.32 0.717676L0.568126 13.0916C0.196126 13.3072 -0.0236097 13.7103 0.00202156 14.1369C0.0276575 14.5646 0.29424 14.9413 0.689209 15.1068L7.87515 18.1246V23.4449C7.87515 23.8565 8.10001 24.2343 8.46108 24.4321C8.62969 24.5244 8.8125 24.5713 8.95781 24.5713C9.1695 24.5713 9.38147 24.5112 9.56672 24.3926L14.7792 21.0429L19.3992 22.9835C19.5391 23.0421 19.6871 23.0714 19.835 23.0714C20.0262 23.0714 20.2166 23.0231 20.3872 22.9264C20.6897 22.7565 20.8972 22.4548 20.9474 22.1117L23.9474 1.86171C24.0516 1.43566 23.8641 1.01064 23.5125 0.767504ZM17.3109 6.15878L8.54063 15.951L3.66703 13.9166L17.3109 6.15878ZM10.0828 21.3838V19.07L12.2602 19.9846L10.0828 21.3838ZM18.975 20.3478L10.6969 16.8702L21.225 5.17488L18.975 20.3478Z" fill="#00B9FF"/>
</g>
<defs>
<clipPath id="clip0_195_106">
<rect width="24" height="24" fill="white" transform="translate(0 0.571289)"/>
</clipPath>
</defs>
</svg>