<svg width="31" height="32" viewBox="0 0 31 32" fill="none" xmlns="http://www.w3.org/2000/svg">
<path d="M26.3936 6.0293C26.3936 5.98086 26.35 5.9518 26.3113 5.9857C25.5508 6.64445 23.715 7.17726 23.4825 7.20148C23.4757 7.20456 23.4682 7.20615 23.4607 7.20615C23.4532 7.20615 23.4458 7.20456 23.4389 7.20148C22.0924 5.05086 18.9875 5.63211 18.9875 5.63211C14.4247 6.60086 14.9284 11.2121 15.0156 11.6965C15.0156 11.7207 15.0156 11.7401 14.972 11.7401C9.89579 11.992 5.46376 7.27414 4.96001 6.71711C4.95501 6.71102 4.94872 6.70612 4.9416 6.70276C4.93449 6.69939 4.92671 6.69765 4.91883 6.69765C4.91096 6.69765 4.90318 6.69939 4.89606 6.70276C4.88895 6.70612 4.88266 6.71102 4.87766 6.71711C4.30801 7.77317 4.12737 8.99577 4.36728 10.1714C4.6072 11.3471 5.25243 12.4012 6.19032 13.1496C6.19836 13.1543 6.20503 13.161 6.20967 13.1691C6.2143 13.1772 6.21674 13.1863 6.21674 13.1956C6.21674 13.2049 6.2143 13.2141 6.20967 13.2222C6.20503 13.2302 6.19836 13.2369 6.19032 13.2416C5.52878 13.221 4.87476 13.0951 4.25282 12.8687C4.22376 12.8687 4.18985 12.8687 4.18985 12.9171C4.25766 15.9202 7.20266 17.2765 7.88563 17.5623C7.89532 17.5654 7.90376 17.5716 7.90974 17.5799C7.91572 17.5881 7.91894 17.5981 7.91894 17.6083C7.91894 17.6185 7.91572 17.6284 7.90974 17.6367C7.90376 17.6449 7.89532 17.6511 7.88563 17.6543C7.27358 17.7876 6.64546 17.8317 6.02079 17.7851C6.01238 17.7848 6.00402 17.7864 5.99638 17.79C5.98875 17.7935 5.98206 17.7988 5.97686 17.8054C5.97166 17.812 5.96811 17.8198 5.96648 17.828C5.96485 17.8363 5.96521 17.8448 5.96751 17.8529C6.58266 20.1682 9.60032 21.137 10.1428 21.2968C10.1519 21.2987 10.1603 21.303 10.1673 21.3092C10.1742 21.3154 10.1794 21.3233 10.1823 21.3321C10.1852 21.3409 10.1858 21.3503 10.184 21.3594C10.1822 21.3685 10.178 21.377 10.1719 21.384C8.30704 23.0502 4.63063 23.491 3.87501 23.5685C3.86497 23.5698 3.85551 23.574 3.84776 23.5805C3.84 23.587 3.83426 23.5956 3.83121 23.6053C3.82816 23.6149 3.82792 23.6253 3.83053 23.6351C3.83314 23.6449 3.83849 23.6537 3.84594 23.6605C6.66501 25.598 14.0469 27.2062 19.685 22.3866C21.3518 20.934 22.6689 19.1234 23.5378 17.0903C24.4068 15.0572 24.8051 12.8541 24.7031 10.6454C24.7032 10.6373 24.7055 10.6294 24.7098 10.6226C24.714 10.6157 24.7201 10.6102 24.7273 10.6066C25.7399 10.0119 26.5836 9.16825 27.1783 8.1557C27.1783 8.10726 27.1783 8.0782 27.1056 8.09273C26.6153 8.26502 26.0859 8.29359 25.5799 8.17508C25.5799 8.17508 26.4081 6.74133 26.3936 6.0293Z" stroke="#C5C6C7" stroke-width="1.45312" stroke-linecap="round"/>
</svg>
