<svg width="35" height="48" viewBox="0 0 35 48" fill="none" xmlns="http://www.w3.org/2000/svg">
<g clip-path="url(#clip0_183_241)">
<path d="M34.403 9.43311L31.305 44.1393L17.3791 48L3.49151 44.1447L0.396729 9.43311H34.403Z" fill="#264DE4"/>
<path d="M28.6527 41.9292L31.3002 12.2712H17.3999V45.049L28.6527 41.9292Z" fill="#2965F1"/>
<path d="M7.49146 25.1453L7.87302 29.4025H17.3999V25.1453H7.49146Z" fill="#EBEBEB"/>
<path d="M17.3999 16.5286H17.3851H6.72473L7.11173 20.7858H17.3999V16.5286Z" fill="#EBEBEB"/>
<path d="M17.3999 40.6312V36.2019L17.3812 36.2068L12.6399 34.9266L12.3368 31.5312H10.0329H8.06323L8.65967 38.2157L17.3803 40.6366L17.3999 40.6312Z" fill="#EBEBEB"/>
<path d="M8.3999 0H13.5562V2.15625H10.5562V4.3125H13.5562V6.46875H8.3999V0Z" fill="black"/>
<path d="M14.5874 0H19.7437V1.875H16.7437V2.25H19.7437V6.5625H14.5874V4.59375H17.5874V4.21875H14.5874V0Z" fill="black"/>
<path d="M20.7749 0H25.9312V1.875H22.9312V2.25H25.9312V6.5625H20.7749V4.59375H23.7749V4.21875H20.7749V0Z" fill="black"/>
<path d="M22.6274 29.4025L22.1333 34.9238L17.3851 36.2054V40.6345L26.1127 38.2157L26.1767 37.4964L27.1771 26.2885L27.281 25.1453L28.0496 16.5286H17.3851V20.7858H23.384L22.9966 25.1453H17.3851V29.4025H22.6274Z" fill="white"/>
</g>
<defs>
<clipPath id="clip0_183_241">
<rect width="34.0063" height="48" fill="white" transform="translate(0.396729)"/>
</clipPath>
</defs>
</svg>
